<svg xmlns="http://www.w3.org/2000/svg" version="1.1" xmlns:xlink="http://www.w3.org/1999/xlink" xmlns:svgjs="http://svgjs.com/svgjs" width="560" height="1024" preserveAspectRatio="none" viewBox="0 0 560 1024"><g mask="url(&quot;#SvgjsMask1318&quot;)" fill="none"><rect width="560" height="1024" x="0" y="0" fill="rgba(38, 38, 38, 1)"></rect><path d="M74.35 964.32L139.31 1001.82L139.31 1076.82L74.35 1114.32L9.4 1076.82L9.4 1001.82zM139.31 401.82L204.26 439.32L204.26 514.32L139.31 551.82L74.35 514.32L74.35 439.32zM204.26 739.32L269.21 776.82L269.21 851.82L204.26 889.32L139.31 851.82L139.31 776.82zM334.17 64.32L399.12 101.82L399.12 176.82L334.17 214.32L269.21 176.82L269.21 101.82zM269.21 401.82L334.17 439.32L334.17 514.32L269.21 551.82L204.26 514.32L204.26 439.32zM269.21 851.82L334.17 889.32L334.17 964.32L269.21 1001.82L204.26 964.32L204.26 889.32zM399.12 176.82L464.08 214.32L464.08 289.32L399.12 326.82L334.17 289.32L334.17 214.32zM399.12 626.82L464.08 664.32L464.08 739.32L399.12 776.82L334.17 739.32L334.17 664.32zM464.08 964.32L529.03 1001.82L529.03 1076.82L464.08 1114.32L399.12 1076.82L399.12 1001.82zM593.98 64.32L658.94 101.82L658.94 176.82L593.98 214.32L529.03 176.82L529.03 101.82zM593.98 289.32L658.94 326.82L658.94 401.82L593.98 439.32L529.03 401.82L529.03 326.82zM529.03 401.82L593.98 439.32L593.98 514.32L529.03 551.82L464.08 514.32L464.08 439.32zM593.98 739.32L658.94 776.82L658.94 851.82L593.98 889.32L529.03 851.82L529.03 776.82zM593.98 964.32L658.94 1001.82L658.94 1076.82L593.98 1114.32L529.03 1076.82L529.03 1001.82z" stroke="url(#SvgjsLinearGradient1319)" stroke-width="2"></path><path d="M66.85 964.32 a7.5 7.5 0 1 0 15 0 a7.5 7.5 0 1 0 -15 0zM131.81 1001.82 a7.5 7.5 0 1 0 15 0 a7.5 7.5 0 1 0 -15 0zM131.81 1076.82 a7.5 7.5 0 1 0 15 0 a7.5 7.5 0 1 0 -15 0zM66.85 1114.32 a7.5 7.5 0 1 0 15 0 a7.5 7.5 0 1 0 -15 0zM1.9 1076.82 a7.5 7.5 0 1 0 15 0 a7.5 7.5 0 1 0 -15 0zM1.9 1001.82 a7.5 7.5 0 1 0 15 0 a7.5 7.5 0 1 0 -15 0zM131.81 401.82 a7.5 7.5 0 1 0 15 0 a7.5 7.5 0 1 0 -15 0zM196.76 439.32 a7.5 7.5 0 1 0 15 0 a7.5 7.5 0 1 0 -15 0zM196.76 514.32 a7.5 7.5 0 1 0 15 0 a7.5 7.5 0 1 0 -15 0zM131.81 551.82 a7.5 7.5 0 1 0 15 0 a7.5 7.5 0 1 0 -15 0zM66.85 514.32 a7.5 7.5 0 1 0 15 0 a7.5 7.5 0 1 0 -15 0zM66.85 439.32 a7.5 7.5 0 1 0 15 0 a7.5 7.5 0 1 0 -15 0zM196.76 739.32 a7.5 7.5 0 1 0 15 0 a7.5 7.5 0 1 0 -15 0zM261.71 776.82 a7.5 7.5 0 1 0 15 0 a7.5 7.5 0 1 0 -15 0zM261.71 851.82 a7.5 7.5 0 1 0 15 0 a7.5 7.5 0 1 0 -15 0zM196.76 889.32 a7.5 7.5 0 1 0 15 0 a7.5 7.5 0 1 0 -15 0zM131.81 851.82 a7.5 7.5 0 1 0 15 0 a7.5 7.5 0 1 0 -15 0zM131.81 776.82 a7.5 7.5 0 1 0 15 0 a7.5 7.5 0 1 0 -15 0zM326.67 64.32 a7.5 7.5 0 1 0 15 0 a7.5 7.5 0 1 0 -15 0zM391.62 101.82 a7.5 7.5 0 1 0 15 0 a7.5 7.5 0 1 0 -15 0zM391.62 176.82 a7.5 7.5 0 1 0 15 0 a7.5 7.5 0 1 0 -15 0zM326.67 214.32 a7.5 7.5 0 1 0 15 0 a7.5 7.5 0 1 0 -15 0zM261.71 176.82 a7.5 7.5 0 1 0 15 0 a7.5 7.5 0 1 0 -15 0zM261.71 101.82 a7.5 7.5 0 1 0 15 0 a7.5 7.5 0 1 0 -15 0zM261.71 401.82 a7.5 7.5 0 1 0 15 0 a7.5 7.5 0 1 0 -15 0zM326.67 439.32 a7.5 7.5 0 1 0 15 0 a7.5 7.5 0 1 0 -15 0zM326.67 514.32 a7.5 7.5 0 1 0 15 0 a7.5 7.5 0 1 0 -15 0zM261.71 551.82 a7.5 7.5 0 1 0 15 0 a7.5 7.5 0 1 0 -15 0zM326.67 889.32 a7.5 7.5 0 1 0 15 0 a7.5 7.5 0 1 0 -15 0zM326.67 964.32 a7.5 7.5 0 1 0 15 0 a7.5 7.5 0 1 0 -15 0zM261.71 1001.82 a7.5 7.5 0 1 0 15 0 a7.5 7.5 0 1 0 -15 0zM196.76 964.32 a7.5 7.5 0 1 0 15 0 a7.5 7.5 0 1 0 -15 0zM456.58 214.32 a7.5 7.5 0 1 0 15 0 a7.5 7.5 0 1 0 -15 0zM456.58 289.32 a7.5 7.5 0 1 0 15 0 a7.5 7.5 0 1 0 -15 0zM391.62 326.82 a7.5 7.5 0 1 0 15 0 a7.5 7.5 0 1 0 -15 0zM326.67 289.32 a7.5 7.5 0 1 0 15 0 a7.5 7.5 0 1 0 -15 0zM391.62 626.82 a7.5 7.5 0 1 0 15 0 a7.5 7.5 0 1 0 -15 0zM456.58 664.32 a7.5 7.5 0 1 0 15 0 a7.5 7.5 0 1 0 -15 0zM456.58 739.32 a7.5 7.5 0 1 0 15 0 a7.5 7.5 0 1 0 -15 0zM391.62 776.82 a7.5 7.5 0 1 0 15 0 a7.5 7.5 0 1 0 -15 0zM326.67 739.32 a7.5 7.5 0 1 0 15 0 a7.5 7.5 0 1 0 -15 0zM326.67 664.32 a7.5 7.5 0 1 0 15 0 a7.5 7.5 0 1 0 -15 0zM456.58 964.32 a7.5 7.5 0 1 0 15 0 a7.5 7.5 0 1 0 -15 0zM521.53 1001.82 a7.5 7.5 0 1 0 15 0 a7.5 7.5 0 1 0 -15 0zM521.53 1076.82 a7.5 7.5 0 1 0 15 0 a7.5 7.5 0 1 0 -15 0zM456.58 1114.32 a7.5 7.5 0 1 0 15 0 a7.5 7.5 0 1 0 -15 0zM391.62 1076.82 a7.5 7.5 0 1 0 15 0 a7.5 7.5 0 1 0 -15 0zM391.62 1001.82 a7.5 7.5 0 1 0 15 0 a7.5 7.5 0 1 0 -15 0zM586.48 64.32 a7.5 7.5 0 1 0 15 0 a7.5 7.5 0 1 0 -15 0zM651.44 101.82 a7.5 7.5 0 1 0 15 0 a7.5 7.5 0 1 0 -15 0zM651.44 176.82 a7.5 7.5 0 1 0 15 0 a7.5 7.5 0 1 0 -15 0zM586.48 214.32 a7.5 7.5 0 1 0 15 0 a7.5 7.5 0 1 0 -15 0zM521.53 176.82 a7.5 7.5 0 1 0 15 0 a7.5 7.5 0 1 0 -15 0zM521.53 101.82 a7.5 7.5 0 1 0 15 0 a7.5 7.5 0 1 0 -15 0zM586.48 289.32 a7.5 7.5 0 1 0 15 0 a7.5 7.5 0 1 0 -15 0zM651.44 326.82 a7.5 7.5 0 1 0 15 0 a7.5 7.5 0 1 0 -15 0zM651.44 401.82 a7.5 7.5 0 1 0 15 0 a7.5 7.5 0 1 0 -15 0zM586.48 439.32 a7.5 7.5 0 1 0 15 0 a7.5 7.5 0 1 0 -15 0zM521.53 401.82 a7.5 7.5 0 1 0 15 0 a7.5 7.5 0 1 0 -15 0zM521.53 326.82 a7.5 7.5 0 1 0 15 0 a7.5 7.5 0 1 0 -15 0zM586.48 514.32 a7.5 7.5 0 1 0 15 0 a7.5 7.5 0 1 0 -15 0zM521.53 551.82 a7.5 7.5 0 1 0 15 0 a7.5 7.5 0 1 0 -15 0zM456.58 514.32 a7.5 7.5 0 1 0 15 0 a7.5 7.5 0 1 0 -15 0zM456.58 439.32 a7.5 7.5 0 1 0 15 0 a7.5 7.5 0 1 0 -15 0zM586.48 739.32 a7.5 7.5 0 1 0 15 0 a7.5 7.5 0 1 0 -15 0zM651.44 776.82 a7.5 7.5 0 1 0 15 0 a7.5 7.5 0 1 0 -15 0zM651.44 851.82 a7.5 7.5 0 1 0 15 0 a7.5 7.5 0 1 0 -15 0zM586.48 889.32 a7.5 7.5 0 1 0 15 0 a7.5 7.5 0 1 0 -15 0zM521.53 851.82 a7.5 7.5 0 1 0 15 0 a7.5 7.5 0 1 0 -15 0zM521.53 776.82 a7.5 7.5 0 1 0 15 0 a7.5 7.5 0 1 0 -15 0zM586.48 964.32 a7.5 7.5 0 1 0 15 0 a7.5 7.5 0 1 0 -15 0zM651.44 1001.82 a7.5 7.5 0 1 0 15 0 a7.5 7.5 0 1 0 -15 0zM651.44 1076.82 a7.5 7.5 0 1 0 15 0 a7.5 7.5 0 1 0 -15 0zM586.48 1114.32 a7.5 7.5 0 1 0 15 0 a7.5 7.5 0 1 0 -15 0z" fill="url(#SvgjsLinearGradient1319)"></path><path d="M93.16 90.85L181.49 141.85L181.49 243.85L93.16 294.85L4.82 243.85L4.82 141.85zM4.82 243.85L93.16 294.85L93.16 396.85L4.82 447.85L-83.52 396.85L-83.52 294.85zM4.82 549.85L93.16 600.85L93.16 702.85L4.82 753.85L-83.52 702.85L-83.52 600.85zM4.82 855.85L93.16 906.85L93.16 1008.85L4.82 1059.85L-83.52 1008.85L-83.52 906.85zM181.49 243.85L269.83 294.85L269.83 396.85L181.49 447.85L93.16 396.85L93.16 294.85zM269.83 396.85L358.17 447.85L358.17 549.85L269.83 600.85L181.49 549.85L181.49 447.85zM269.83 1008.85L358.17 1059.85L358.17 1161.85L269.83 1212.85L181.49 1161.85L181.49 1059.85zM358.17 -62.15L446.51 -11.15L446.51 90.85L358.17 141.85L269.83 90.85L269.83 -11.15zM446.51 90.85L534.84 141.85L534.84 243.85L446.51 294.85L358.17 243.85L358.17 141.85zM446.51 396.85L534.84 447.85L534.84 549.85L446.51 600.85L358.17 549.85L358.17 447.85zM446.51 702.85L534.84 753.85L534.84 855.85L446.51 906.85L358.17 855.85L358.17 753.85zM446.51 1008.85L534.84 1059.85L534.84 1161.85L446.51 1212.85L358.17 1161.85L358.17 1059.85zM534.84 -62.15L623.18 -11.15L623.18 90.85L534.84 141.85L446.51 90.85L446.51 -11.15zM534.84 243.85L623.18 294.85L623.18 396.85L534.84 447.85L446.51 396.85L446.51 294.85zM534.84 549.85L623.18 600.85L623.18 702.85L534.84 753.85L446.51 702.85L446.51 600.85zM623.18 702.85L711.52 753.85L711.52 855.85L623.18 906.85L534.84 855.85L534.84 753.85zM534.84 855.85L623.18 906.85L623.18 1008.85L534.84 1059.85L446.51 1008.85L446.51 906.85zM623.18 1008.85L711.52 1059.85L711.52 1161.85L623.18 1212.85L534.84 1161.85L534.84 1059.85z" stroke="rgba(255, 204, 117, 1)" stroke-width="2"></path></g><defs><mask id="SvgjsMask1318"><rect width="560" height="1024" fill="#ffffff"></rect></mask><linearGradient x1="-115.976" y1="907.9808" x2="675.9759999999999" y2="116.0192" gradientUnits="userSpaceOnUse" id="SvgjsLinearGradient1319"><stop stop-color="rgba(158, 0, 129, 1)" offset="0"></stop><stop stop-color="rgba(255, 217, 0, 1)" offset="1"></stop></linearGradient></defs></svg>